# xmcd
# 
# Track frame offsets:
#     150
#     17000
#     37920
#     54867
#     68752
#     84200
#     103684
#     117724
#     130698
#     146941
#     162687
#     178255
# 
# Disc length: 2656
# 
# Revision: 0
# Processed by: cddbd v1.5.2PL0 Copyright (c) Steve Scherf et al.
# Submitted via: fre:ac v1.0.17
# 
DISCID=a40a5e0c
DTITLE=Wayd Battle - Wayd Battle
DYEAR=2000
DGENRE=Country
TTITLE0=It Ain't Funny
TTITLE1=Lonesome, On'ry and Mean
TTITLE2=I'll Try It
TTITLE3=What Are the Chances
TTITLE4=A House on the Market
TTITLE5=Savannah
TTITLE6=Where Country Feels At Home
TTITLE7=Life on the Rural Route
TTITLE8=She Made a Mess Out of Me
TTITLE9=Summer Nights
TTITLE10=Livin' It Up
TTITLE11=Highway Song
EXTD=
EXTT0=
EXTT1=
EXTT2=
EXTT3=
EXTT4=
EXTT5=
EXTT6=
EXTT7=
EXTT8=
EXTT9=
EXTT10=
EXTT11=
PLAYORDER=
